<svg width="13" height="8" viewBox="0 0 13 8" fill="none" xmlns="http://www.w3.org/2000/svg">
<g clip-path="url(#clip0_652_106)">
<path d="M0 0.499999C0.000331042 0.364865 0.0542804 0.235387 0.15 0.139999C0.243465 0.0483854 0.369124 -0.00292969 0.5 -0.00292969C0.630876 -0.00292969 0.756535 0.0483854 0.85 0.139999L6.5 5.79L12.15 0.139999C12.2435 0.0483854 12.3691 -0.00292969 12.5 -0.00292969C12.6309 -0.00292969 12.7565 0.0483854 12.85 0.139999C12.8969 0.18648 12.9341 0.241781 12.9594 0.302711C12.9848 0.36364 12.9979 0.428993 12.9979 0.494999C12.9979 0.561005 12.9848 0.626358 12.9594 0.687287C12.9341 0.748217 12.8969 0.803517 12.85 0.849999L6.5 7.2L0.15 0.849999C0.055793 0.757684 0.00187852 0.631884 0 0.499999Z" fill="#333333"/>
</g>
<defs>
<clipPath id="clip0_652_106">
<rect width="13" height="7.21" fill="white"/>
</clipPath>
</defs>
</svg>
